{"title":"Kanithan 2016 Tamil Movies DVDScr XviD AAC with Sample ~ ☻rDX☻","uid":13689963,"size":741335508,"categoryP":"video","categoryS":"movies","magnet":"?xt=urn:btih:f7283f03dc5e8cf56c0def693530aefe51ba0216&amp;dn=Kanithan+2016+Tamil+Movies+DVDScr+XviD+AAC+with+Sample+%7E+%E2%98%BBrDX%E2%98%BB&amp;tr=udp%3A%2F%2Ftracker.leechers-paradise.org%3A6969&amp;tr=udp%3A%2F%2Fzer0day.ch%3A1337&amp;tr=udp%3A%2F%2Fopen.demonii.com%3A1337&amp;tr=udp%3A%2F%2Ftracker.coppersurfer.tk%3A6969&amp;tr=udp%3A%2F%2Fexodus.desync.com%3A6969","seeders":0,"leechers":3,"uploader":"basicssom","files":2,"time":1456594653,"description":"----------------------------------------------------------------\r\nKanithan 2016 Tamil Movies DVDScr XviD AAC Clean Audio with Sample ~ ☻rDX☻\r\n\r\nSCREEN SHOTS &amp; POSTER:\r\n  \nhttp://mobileshosting.com/2016/2/3g/index.htm  \nhttp://mobileshosting.com/2016/2/3g/1.html  \nhttp://mobileshosting.com/2016/2/3g/2.html  \nhttp://mobileshosting.com/2016/2/3g/3.html  \nhttp://mobileshosting.com/2016/2/3g/4.html  \nhttp://mobileshosting.com/2016/2/3g/5.html  \nhttp://mobileshosting.com/2016/2/3g/6.html  \nhttp://mobileshosting.com/2016/2/3g/7.html  \nhttp://mobileshosting.com/2016/2/3g/8.html  \nhttp://mobileshosting.com/2016/2/3g/9.html  \nhttp://mobileshosting.com/2016/2/3g/10.html\r\n\r\nFormat                                   : Matroska\r\nFormat version                           : Version 4 / Version 2\r\nFile size                                : 696 MiB\r\nDuration                                 : 2h 14mn\r\nOverall bit rate                         : 725 Kbps\r\nMovie name                               : Kanithan 2016 Tamil Movies DVDScr XviD AAC New Source Clean Audio ☻rDX☻\r\n\r\nVideo\r\nID                                       : 1\r\nFormat                                   : AVC\r\nFormat/Info                              : Advanced Video Codec\r\nFormat profile                           :   \r\nFormat settings, CABAC                   : Yes\r\nFormat settings, ReFrames                : 4 frames\r\nCodec ID                                 : V_MPEG4/ISO/AVC\r\nDuration                                 : 2h 14mn\r\nBit rate                                 : 615 Kbps\r\nWidth                                    : 608 pixels\r\nHeight                                   : 256 pixels\r\nDisplay aspect ratio                     : 2.40:1\r\nFrame rate mode                          : Constant\r\nFrame rate                               : 25.000 fps\r\nColor space                              : YUV\r\nChroma subsampling                       : 4:2:0\r\nBit depth                                : 8 bits\r\nScan type                                : Progressive\r\nBits/(Pixel*Frame)                       : 0.158\r\nStream size                              : 590 MiB (85%)\r\nTitle                                    : ☻rDX☻\r\nLanguage                                 : Tamil\r\nDefault                                  : Yes\r\nForced                                   : Yes\r\n\r\nAudio\r\nID                                       : 2\r\nFormat                                   : MPEG Audio\r\nFormat version                           : Version 1\r\nFormat profile                           : Layer 3\r\nMode                                     : Joint stereo\r\nMode extension                           : MS Stereo\r\nCodec ID                                 : A_MPEG/L3\r\nCodec ID/Hint                            : MP3\r\nDuration                                 : 2h 14mn\r\nBit rate mode                            : Constant\r\nBit rate                                 : 96.0 Kbps\r\nChannel(s)                               : 2 channels\r\nSampling rate                            : 48.0 KHz\r\nCompression mode                         : Lossy\r\nDelay relative to video                  : 16ms\r\nStream size                              : 92.1 MiB (13%)\r\nTitle                                    : ☻rDX☻\r\nLanguage                                 : Tamil\r\nDefault                                  : Yes\r\nForced                                   : Yes\r\n\r\nIMDB                                     \r\nna","torrent":{"xt":"urn:btih:f7283f03dc5e8cf56c0def693530aefe51ba0216","amp;dn":"Kanithan+2016+Tamil+Movies+DVDScr+XviD+AAC+with+Sample+%7E+%E2%98%BBrDX%E2%98%BB","amp;tr":["udp%3A%2F%2Ftracker.leechers-paradise.org%3A6969","udp%3A%2F%2Fzer0day.ch%3A1337","udp%3A%2F%2Fopen.demonii.com%3A1337","udp%3A%2F%2Ftracker.coppersurfer.tk%3A6969","udp%3A%2F%2Fexodus.desync.com%3A6969"],"infoHash":"f7283f03dc5e8cf56c0def693530aefe51ba0216","infoHashBuffer":{"type":"Buffer","data":[247,40,63,3,220,94,140,245,108,13,239,105,53,48,174,254,81,186,2,22]},"announce":[],"urlList":[]}}